<?xml version="1.0" encoding="utf-8"?>
<!-- Generator: Adobe Illustrator 22.1.0, SVG Export Plug-In . SVG Version: 6.00 Build 0)  -->
<svg version="1.1" id="图层_1" xmlns="http://www.w3.org/2000/svg" xmlns:xlink="http://www.w3.org/1999/xlink" x="0px" y="0px"
	 viewBox="0 0 6534.5 1785.3" style="enable-background:new 0 0 6534.5 1785.3;" xml:space="preserve">
<style type="text/css">
	.st0{display:none;}
	.st1{fill:url(#SVGID_1_);}
	.st2{fill:#FFFFFF;}
	.st3{fill:#080833;}
</style>
<title>logo文字</title>
<path class="st0" d="M1648.7,658.5v-68.3h195.9v-53.4h77.2v53.4H2094v-53.4h77.2v53.4h190v68.3h-190v38.6H2094v-38.6h-172.2v35.6
	h-77.2v-35.6H1648.7z M1648.7,1225.5v-62.3h74.3V982.1h564v181.1h74.2v62.3H1648.7z M1705.1,943.5V732.8h74.2v210.8L1705.1,943.5z
	 M1803.1,1044.5v118.8h89.1v-118.8H1803.1z M1859.6,949.5V712h77.2v237.5H1859.6z M2013.9,949.5c-7.9-5.9-21.8-15.8-41.6-29.7
	c-9.9-5.9-16.8-10.8-20.8-14.8c49.4-57.4,85.1-122.7,106.9-195.9l77.2,11.9l-17.8,41.6h231.6v65.3h-258.3
	C2067.7,869.8,2042,910.4,2013.9,949.5L2013.9,949.5z M1963.5,1044.5v118.8h86.1v-118.8H1963.5z M2230.6,970.3
	c-43.6-35.6-84.1-65.3-121.7-89.1l44.5-47.5c51.4,35.6,93,64.3,124.7,86.1L2230.6,970.3z M2206.9,1044.5h-86.1v118.8h86.1V1044.5z"
	/>
<path class="st0" d="M2429.5,795.1c-9.9-27.7-19.8-50.5-29.7-68.3c41.6-53.4,77.2-116.8,106.9-190l68.3,8.9c-2,5.9-5,13.9-8.9,23.8
	c-2,4-7,14.8-14.8,32.7H2670v59.4l-44.5,80.2h71.2V1086h-261.3V789.2L2429.5,795.1z M2741.2,1207.8c-16-13.9-32.8-26.8-50.5-38.6
	v20.8c-100.9,9.9-193,18.8-276.1,26.7l-8.9-62.3c43.5-3.9,119.7-9.9,228.6-17.8c25.7-1.9,44.5-3.9,56.4-5.9v32.7
	c35.9-43.9,66.7-91.7,92-142.5l59.4,32.7C2818.4,1097,2784.8,1148.4,2741.2,1207.8z M2601.7,664.5h-83.1
	c-13.5,27.1-29.4,52.9-47.5,77.2h89.1L2601.7,664.5z M2491.9,801v86.1h50.5V801H2491.9z M2491.9,940.5v86.1h50.5v-86L2491.9,940.5z
	 M2643.3,801h-50.5v86.1h50.5V801z M2592.8,940.6v86.1h50.5v-86.1H2592.8z M2717.5,688.2V620h166.2c-2-7.9-6-20.8-11.9-38.6
	c-5.9-15.8-10.9-27.7-14.8-35.6l80.2-8.9c1.9,5.9,4.9,13.8,8.9,23.8c9.9,25.7,15.8,45.5,17.8,59.4h160.3v68.3L2717.5,688.2z
	 M2803.6,1240.4c-4-23.7-8.9-47.5-14.8-71.2c7.9,0,18.8,1,32.6,3h29.7c23.8,0,35.6-10.9,35.6-32.7V982.1h-133.6V750.6h329.5v231.6
	H2958v181.1c0,49.5-23.8,75.2-71.2,77.2L2803.6,1240.4L2803.6,1240.4z M2824.4,812.9v103.9h187V812.9H2824.4z M3070.8,1201.8
	c-2-5.9-6-13.9-11.9-23.8c-27.7-51.4-52.5-94-74.2-127.7l59.4-29.7c11.9,21.8,15.8,29.7,11.9,23.8c31.6,53.4,57.4,95,77.2,124.7
	L3070.8,1201.8z"/>
<path class="st0" d="M3177.6,759.5v-62.3H3338V542.8h68.3v154.4h142.5v62.3h-142.5v62.3l29.7-35.6c29.7,17.8,58.4,34.6,86.1,50.5
	c51.4-85.1,91-185,118.8-299.8l74.2,8.9c-11.9,37.6-23.8,76.2-35.6,115.8h198.9v71.2h-50.5c-11.9,144.5-39.6,252.4-83.1,323.6
	c35.6,43.6,82.1,82.1,139.5,115.8c-2,3.9-5.9,9.9-11.9,17.8c-13.9,21.8-24.8,40.6-32.6,56.4c-59.4-43.6-104.9-85.1-136.6-124.7
	c-31.7,35.6-80.2,79.2-145.5,130.6c-15.9-23.7-31.7-43.5-47.5-59.4l-11.9,20.8c-43.6-21.8-76.2-37.6-98-47.5
	c-49.5,31.6-117.8,59.3-204.8,83.1c-9.9-17.8-20.8-39.6-32.7-65.3c7.9-2,17.8-5,29.7-8.9c69.3-13.8,114.8-26.7,136.6-38.6
	c-5.9-3.9-15.8-8.9-29.7-14.8c-17.8-9.9-49.5-23.7-95-41.6c16-22,30.8-44.8,44.5-68.3h-77.2v-62.4h115.8
	c9.9-17.8,18.8-33.6,26.7-47.5l71.2,5.9l-23.8,41.6H3528v65.3c-15.9,41.6-38.6,78.2-68.3,109.9c23.8,9.9,49.5,20.8,77.2,32.7
	l-17.8,23.7c59.4-39.6,105.9-81.1,139.5-124.7c-27.7-47.5-49.5-115.8-65.3-204.8c-5.9,7.9-12.9,18.8-20.8,32.7
	c-4,7.9-7,13.9-8.9,17.8c-2-2-6-6.9-11.9-14.8c-5.9-9.9-10.9-16.8-14.9-20.8l-29.7,41.6c-25.7-21.8-59.4-45.5-100.9-71.2v53.4H3338
	V816c-31.7,35.6-77.2,69.3-136.6,100.9c-5.9-11.9-15.8-28.7-29.7-50.5c-1.5-3.2-3.5-6.3-5.9-8.9c61.3-23.7,111.8-56.4,151.4-98
	L3177.6,759.5z M3263.7,688.2c-31.7-37.6-57.4-66.3-77.2-86.1l47.5-35.6c9.9,9.9,25.7,25.8,47.5,47.5c17.8,15.9,29.7,26.8,35.6,32.7
	L3263.7,688.2z M3293.4,1053.4c11.9,4,28.7,10.9,50.5,20.8c23.8,7.9,40.6,14.9,50.5,20.8c25.7-19.8,45.5-47.5,59.4-83.1h-130.6
	L3293.4,1053.4z M3471.6,691.2l-47.5-41.6c17.8-15.8,45.5-44.5,83.1-86.1l50.5,38.6C3541.8,620,3513.1,649.6,3471.6,691.2z
	 M3643.7,750.6c11.9,100.9,31.7,180.1,59.4,237.5c29.7-55.4,48.5-140.5,56.4-255.3h-109.8C3645.7,738.7,3643.7,744.6,3643.7,750.6z"
	/>
<path class="st0" d="M3934.7,750.6v-74.2h74.2V542.8h71.2v133.6h65.3v74.2h-65.3v130.6l59.4-14.8c0,25.7,1,50.5,3,74.2l-62.4,17.8
	v195.9c2,53.4-22.8,81.1-74.2,83.1c-27.7,1.9-50.5,2.9-68.3,3c-2-26-6-51.8-11.9-77.2h11.9c15.8,2,27.7,3,35.6,3
	c25.7,2,37.6-7.9,35.6-29.7V976.2c-7.9,2-19.8,6-35.6,11.9c-19.8,4-33.7,8-41.6,11.9l-8.9-83.1c9.9-2,24.7-4.9,44.5-8.9
	c17.8-3.9,31.6-6.9,41.5-8.9V750.6H3934.7z M4148.4,1246.4c-15.9-15.9-35.7-33.7-59.4-53.4c59.4-75.2,87.1-197.9,83.1-368.1V575.4
	h445.3v204.8h-371.1v74.2h148.4v-74.2h74.2v74.2h172.2v65.3H4469V994h136.6v252.3h-71.2v-38.6h-204.8v38.6h-71.2V994H4395v-74.2
	h-151.4C4241.4,1048.5,4209.8,1157.3,4148.4,1246.4L4148.4,1246.4z M4246.4,637.8V718h296.9v-80.2H4246.4z M4329.6,1056.4v95h204.8
	v-95H4329.6z"/>
<path class="st0" d="M4724.4,649.6v-77.2h641.2v77.2h-279.1v282h314.7v77.2h-314.7v240.5h-83.1v-240.4h-314.7v-77.2h314.7v-282
	L4724.4,649.6z M4875.8,896c-41.6-53.4-85.1-105.9-130.6-157.3l59.4-47.5c47.2,49.1,91.8,100.6,133.6,154.4L4875.8,896z M5202.3,899
	l-59.3-50.5c43.5-43.5,89-96,136.6-157.3l62.3,44.5C5296.3,793.2,5249.8,847.6,5202.3,899z"/>
<path class="st0" d="M6098.9,887.1c-17.8-19.8-35.6-38.6-53.4-56.4c-207.8,4-356.3,8-445.3,11.9c-41.6,4-75.2,8.9-100.9,14.8
	l-38.6-80.2c27.7-9.9,54.4-25.7,80.2-47.5c75.2-63.3,141.5-128.6,198.9-195.9l89.1,38.6c-5.6,5.3-11.6,10.3-17.8,14.8
	c-87.1,81.2-156.4,142.5-207.8,184.1l377-11.9l-89.1-89.1l59.4-44.5c83.1,77.2,154.4,147.5,213.8,210.8L6098.9,887.1z
	 M5531.9,1249.3V916.8h546.2v332.5H5995v-47.5h-383v47.5H5531.9z M5612,988.1v148.4h383V988.1H5612z"/>
<linearGradient id="SVGID_1_" gradientUnits="userSpaceOnUse" x1="879.6517" y1="-165.3983" x2="925.0917" y2="815.9918" gradientTransform="matrix(1 0 0 1 0 762)">
	<stop  offset="0" style="stop-color:#2F52A0"/>
	<stop  offset="1" style="stop-color:#00A7E3"/>
</linearGradient>
<path class="st1" d="M1251.8,535.1L894.2,386.3L536.1,534L387.3,891.6l147.6,358.1l357.6,148.8l358.1-147.6l148.8-357.6
	L1251.8,535.1z"/>
<path class="st2" d="M895.4,610.6c-6.8,0-13.5,1.7-19.5,5l-220.2,107c-0.5,0.2-1,0.5-1.4,0.7c-19.4,11.2-26.1,36-14.9,55.4
	c3.6,6.2,8.7,11.3,14.9,14.9c0.5,0.3,1,0.6,1.6,0.9L864.3,892l-0.4,234.8l-177.7-94.9l-1.1-96.8c20.2-12.2,26.7-38.4,14.6-58.6
	c-12.2-20.2-38.4-26.7-58.6-14.6c-20.2,12.2-26.7,38.4-14.6,58.6c3.8,6.3,9.1,11.5,15.4,15.1l1.1,98.7c0.2,14.6,8.2,28,20.9,35.1
	l182.8,97.6c12.5,7.3,28,7.3,40.5,0c12.6-7.2,20.4-20.6,20.3-35.1V892.7l215.5-87.9l-0.4,227.6l-101.7,51.4
	c-20.1-12.3-46.4-6.1-58.7,14s-6.1,46.4,14,58.7s46.4,6.1,58.7-14c3.8-6.2,6-13.3,6.3-20.5l104.2-52.8c12.9-7.2,20.9-20.7,20.9-35.5
	v-233c0.1-14.5-7.7-28-20.3-35.2c-12-7-26.7-7.3-39-0.8l-220.4,89.9l-205.8-96.2l214.3-104.1l0.2-0.1l0,0l0.2,0.1L1005,703
	c0.5,23.6,20.2,42.4,43.8,41.8c23.6-0.5,42.4-20.2,41.8-43.8s-20.2-42.4-43.8-41.8c-7.3,0.2-14.5,2.2-20.8,6l-111.2-49.6
	C908.9,612.3,902.2,610.6,895.4,610.6L895.4,610.6z"/>
<g>
	<path class="st3" d="M1820.4,559.7h119.2l-118.3,673.3h-120.1L1820.4,559.7z"/>
	<path class="st3" d="M2180.6,655.8l-32.9,188.6h232.2l-38.2,93.4h-210.8l-33.8,196.6h266l-40.9,98.7h-362l118.3-673.3h381.6
		l-40,96.1H2180.6z"/>
	<path class="st3" d="M2867.3,876.4h119.2l-33.8,189.5c-15.1,86.3-29.4,129-60.5,151.2c-26.7,18.7-64,22.2-122.7,22.2H2636
		c-124.5,0-177-33.8-177-132.5c0-25.8,2.7-56,12.5-109.4l47.1-264.2c13.3-75.6,32-121,71.2-146.8c37.4-24.9,83.6-26.7,125.4-26.7
		h298.9l-40,97h-244.6c-71.2,0-83.6,28.5-99.6,116.5l-32.9,185.9c-9.8,56.9-17.8,102.3-17.8,125.4c0,48.9,31.1,56,105.8,56h135.2
		L2867.3,876.4z"/>
	<path class="st3" d="M3721.1,758.9c-20.2,99.4-59.8,192-102.4,269.8c29.1,72.5,63.5,139.7,98.6,198h-91.9
		c-16.4-29.9-35.1-73.2-54.5-121.8c-32.9,46.3-71,89.7-103.1,121.8h-108.4c5.2-4.5,9.7-9.7,14.9-14.2h-88.2
		c-17.2-12-35.9-24.7-55.3-38.9c-27.6,17.9-55.3,35.9-84.4,53.1h-122.5c53.8-32.1,104.6-62.8,150.9-93.4
		c-25.4-18.7-50.1-37.4-72.5-54.5l46.3-64.3h-80l8.2-59.8h112.8c9.7-14.2,17.9-26.2,22.4-34.4h84.4c-5.2,7.5-12.7,20.2-22.4,34.4
		h124c17.9,0,26.9,5.2,26.9,17.2c0,29.9-9,51.6-30.6,76.2c-34.4,29.9-67.3,56.8-101.6,82.2c32.1,21.7,65.8,44.8,97.1,66.5
		c53.8-53.8,107.6-118.1,148.7-179.3c-16.4-47.8-31.4-97.1-43.3-144.2h-48.6c6.7,13.5,14.2,27.6,20.9,42.6h-82.2
		c-17.9-45.6-33.6-88.2-50.1-136.7h67.3c10.5,23.9,23.2,50.8,37.4,80c49.3-97.1,97.1-207,130-304.9h77
		c-15.7,44.8-32.9,91.2-51.6,137.5h184.6l-7.5,67.3H3721.1z M3165.9,918.8h-83.7c35.1-45.6,68.7-94.9,93.4-139.7h70.2
		C3223.4,825.4,3191.3,879.2,3165.9,918.8z M3257,756.7h-147.2l9-62H3266l20.9-140.5h73.2L3340,694.7h149.4l-9.7,62h-148
		l-20.9,146.5h-75.5L3257,756.7z M3184.6,679.7c-17.2-37.4-32.9-71-50.1-104.6h72.5c14.2,29.1,31.4,61.3,53.1,104.6H3184.6z
		 M3237.6,1091.4c34.4-23.9,65-47.1,91.9-68.7c3.7-3.7,6-8.2,0-8.2h-96.4c-12.7,18.7-25.4,36.6-35.1,49.3
		C3210,1072.8,3223.4,1081.7,3237.6,1091.4z M3352.7,679.7c20.9-29.9,46.3-72.5,63.5-104.6h74.7c-17.2,31.4-43.3,76.2-61.3,104.6
		H3352.7z M3647.1,758.9h-80c-14.9,33.6-29.9,66.5-44.8,97.1h41.1c6.7,26.9,14.2,53.8,22.4,80C3609,883,3634.4,822.4,3647.1,758.9z"
		/>
	<path class="st3" d="M3981.9,957.7l-38.1,269h-133l-20.2-63.5h83.7l24.7-175.6c-17.9,6-36.6,12.7-55.3,18.7l-30.6-63.5
		c32.9-9,65-19.4,97.1-29.1l20.9-151.7h-80l9.7-66.5h80l20.2-141.2h78.5l-20.2,141.2h74l-9.7,66.5h-74l-17.2,124.8
		c25.4-8.2,50.8-16.4,74.7-24.7l-10.5,68.7C4033.4,939,4008,948,3981.9,957.7z M4369.7,769.4l-10.5,77h147.2l-9,62.8H4351l-9.7,77
		h80c35.1,0,44.1,9.7,38.9,45.6l-26.9,195h-316.8l35.1-240.6h112.8l10.5-77h-118.1c-23.2,106.9-56.8,212.2-106.9,317.6h-87.4
		c121.1-220.4,146.5-439.4,171.9-659.1h347.5c36.6,0,44.1,14.9,40.4,43.3l-22.4,158.4H4369.7z M4293.5,769.4h-109.8l-13.5,77H4283
		L4293.5,769.4z M4202.3,628.9c-3,26.2-6,53.1-9.7,79.2h240.6l9.7-68.7c1.5-8.2-2.2-10.5-11.2-10.5H4202.3z M4373.4,1046.6h-153.9
		l-16.4,118.8h160.7l16.4-112.1C4380.9,1048.1,4379.4,1046.6,4373.4,1046.6z"/>
	<path class="st3" d="M5240.2,639.4h-252.6l-37.4,266.8h288.4l-9.7,62.8h-287.7l-35.9,257.8h-85.9l36.6-257.8h-272l9.7-62.8h271.2
		l38.1-266.8h-239.1l9-62.8h576.1L5240.2,639.4z M4823.3,867.3h-86.7c-16.4-52.3-34.4-115.1-53.1-188.3h80
		C4775.4,723.8,4794.9,786.6,4823.3,867.3z M5007.8,868c39.6-60.5,71-123.3,94.9-188.3h80c-25.4,65.8-53.1,128.5-85.9,188.3H5007.8z
		"/>
	<path class="st3" d="M5854.4,837.4h-517.8c87.4-85.9,188.3-196.5,256.3-284h108.3c-71.7,90.4-145,170.4-192,216.7h346.7
		c-28.4-47.1-58.3-96.4-83.7-143.5h88.2c41.8,70.2,103.9,162.2,150.2,235.4H5909c-11.2-20.9-23.9-42.6-36.6-64.3L5854.4,837.4z
		 M5915.7,977.1l-32.9,248.8h-534.3l45.6-310.1h473.8C5914.2,915.8,5921.7,930.8,5915.7,977.1z M5817.8,983.1h-349l-22.4,175.6
		h358.7l21.7-163.6C5828.3,987.6,5826,983.1,5817.8,983.1z"/>
</g>
</svg>
