<?xml version="1.0" encoding="UTF-8"?>
<svg width="16px" height="16px" viewBox="0 0 16 16" version="1.1" xmlns="http://www.w3.org/2000/svg" xmlns:xlink="http://www.w3.org/1999/xlink">
    <!-- Generator: Sketch 57.1 (83088) - https://sketch.com -->
    <title>形状</title>
    <desc>Created with Sketch.</desc>
    <g id="迭代一" stroke="none" stroke-width="1" fill="none" fill-rule="evenodd">
        <g id="0101.文档中心主页" transform="translate(-400.000000, -1006.000000)" fill="#7980B8" fill-rule="nonzero">
            <g id="编组-3" transform="translate(370.000000, 971.000000)">
                <path d="M45.3821844,41.6082565 C45.9793335,41.6082565 46.2286287,40.8410455 45.7435659,40.4873941 L38.3632669,35.1188499 C38.1469769,34.9603834 37.8529289,34.9603834 37.6366389,35.1188499 L30.2563399,40.4873941 C29.7712771,40.839113 30.0205723,41.6082565 30.6196539,41.6082565 L31.8158846,41.6082565 L31.8158846,48.8358863 L30.4244693,48.8358863 C30.3394383,48.8358863 30.2698676,48.9054571 30.2698676,48.990488 L30.2698676,49.9953991 C30.2698676,50.08043 30.3394383,50.1500008 30.4244693,50.1500008 L45.5754365,50.1500008 C45.6604675,50.1500008 45.7300382,50.08043 45.7300382,49.9953991 L45.7300382,48.990488 C45.7300382,48.9054571 45.6604675,48.8358863 45.5754365,48.8358863 L44.1840212,48.8358863 L44.1840212,41.6082565 L45.3821844,41.6082565 Z M35.46835,48.8358863 L33.2073,48.8358863 L33.2073,41.6082565 L35.46835,41.6082565 L35.46835,48.8358863 Z M39.1208153,48.8358863 L36.8597653,48.8358863 L36.8597653,41.6082565 L39.1208153,41.6082565 L39.1208153,48.8358863 Z M42.7926058,48.8358863 L40.5122306,48.8358863 L40.5122306,41.6082565 L42.7926058,41.6082565 L42.7926058,48.8358863 Z" id="形状"></path>
            </g>
        </g>
    </g>
</svg>